# xmcd
#
# Track frame offsets: 
#        150
#        33915
#        56090
#        76043
#        120432
#        141474
#        170371
#
# Disc length: 2508 seconds
#
# Revision: 0
# Processed by: cddbd v1.5.2PL0 Copyright (c) Steve Scherf et al.
# Submitted via: ExactAudioCopyFreeDBPlugin 1.0
#
DISCID=5309ca07
DTITLE=Enter Shikari - Live In The Barrowland (Bootleg Series Vol. 5) 
DTITLE=CD 2
DYEAR=2012
DGENRE=Electronic Metal
TTITLE0=Gap In The Fence
TTITLE1=Juggernauts
TTITLE2=Arguing With Thermometers
TTITLE3=Mothership
TTITLE4=Constellations
TTITLE5=Pack Of Thieves
TTITLE6=Zzzonked
EXTD=
EXTT0=
EXTT1=
EXTT2=
EXTT3=
EXTT4=
EXTT5=
EXTT6=
PLAYORDER=
